<?xml version="1.0" encoding="UTF-8" standalone="no"?>
<svg
   width="16"
   height="16"
   version="1.1"
   id="svg1"
   sodipodi:docname="icon.svg"
   xml:space="preserve"
   inkscape:version="1.4.2 (ebf0e940d0, 2025-05-08)"
   xmlns:inkscape="http://www.inkscape.org/namespaces/inkscape"
   xmlns:sodipodi="http://sodipodi.sourceforge.net/DTD/sodipodi-0.dtd"
   xmlns="http://www.w3.org/2000/svg"
   xmlns:svg="http://www.w3.org/2000/svg"><defs
     id="defs1" /><sodipodi:namedview
     id="namedview1"
     pagecolor="#ffffff"
     bordercolor="#666666"
     borderopacity="1.0"
     inkscape:showpageshadow="2"
     inkscape:pageopacity="0.0"
     inkscape:pagecheckerboard="0"
     inkscape:deskcolor="#d1d1d1"
     showgrid="false"
     inkscape:zoom="17.796875"
     inkscape:cx="-4.5794557"
     inkscape:cy="15.985953"
     inkscape:window-width="2558"
     inkscape:window-height="1412"
     inkscape:window-x="0"
     inkscape:window-y="26"
     inkscape:window-maximized="1"
     inkscape:current-layer="svg1" /><path
     fill="#e0e0e0"
     d="M1.553 4.104A1 1 0 0 0 1 4.998v6a1 1 0 0 0 .553.895l6 3a1 1 0 0 0 .894 0l6-3a1 1 0 0 0 .553-.895v-6a1 1 0 0 0-.553-.894l-6-3a1 1 0 0 0-.894 0zM8 3.119 11.764 5l-1.381.692-3.764-1.883L8 3.119zm-5 3.5 4 2v3.764l-4-2zm10 0v3.764l-4 2V8.619z"
     id="path1" /><path
     fill="#808080"
     d="m 2.9527871,10.250254 c -0.263,0.3 -0.42,0.73 -0.42,1.238 0,1.628 -3.13800003,-0.178 -0.337,2.67 0.884,0.9 2.654,0.67 3.538,-0.228 a 2.33,2.33 0 0 0 0,-3.256 c -1.1,-1.1189999 -2.2,-1.0839999 -2.78,-0.424 z m 2.3,-1.6399999 2.4,2.3999999 6.7999999,-6.7999999 a 1.7148251,1.7148251 0 0 0 -2.4,-2.45 z"
     id="path1-5"
     style="stroke:#ffffff;stroke-opacity:1;stroke-width:0.56692913;stroke-dasharray:none" /></svg>
